<svg xmlns="http://www.w3.org/2000/svg" viewBox="0 0 1921.3 5459"><defs><style>.cls-1{fill:#fff;}.cls-2{fill:#e70000;}.cls-3{fill:#e75500;}.cls-4{fill:#e75500;}.cls-5{fill:#e70000;}.cls-6{fill:#fdf9f9;}.cls-7{fill:#f7bfbf;}.cls-8{fill:#f6c5bf;}</style></defs><g id="Layer_2" data-name="Layer 2"><g id="Background_v2_Image" data-name="Background v2 Image"><path class="cls-1" d="M273.92,2473.05c-8.85,7.62-13.26,18.26-18.08,28.34-4,8.3-.29,16.16,8.06,19.83,69,22.68,176.11-.42,235.07-43.69,94.21-66.18,29.89-185.93,24.75-277.4-6.54-103,36.71-100.33,113.09-57.32,39.4,19.94,80.62,35,123.32,46.09,56,14.1,112.86,30.33,159.31,66.14,48.29,42.12,111.53,49.41,171.66,62.93,100.79,33,159.17,129.21,225.54,205.3,12.36,14.66,26,27.77,42.9,36.92,32.54,19.61,56.07-3.46,82.55-21.26,24.51-12.31,21-36.12,12.91-58.45-19.56-62.62-59.89-116-80-178.37-14.31-38.41,7.66-68.46,39.56-89.45,47.43-37.66,108.93-61.1,144.77-111.39,17.6-30.18-9.53-50-37.92-51.55-111.38-6.54-260.12,136.12-350,113.38-12.29-3.09-24.32-6.87-35.69-12.61-60.93-33.6-133.35-43.3-187.53-89.06-32.93-30-78.65-33.94-118.57-49.8-69.83-27.89-101-104.4-166.54-138.55-15.57-10.84-30.84-22.09-48.1-30.28-21.87-10.38-27.18-13.4-19.63-44.13,13.14-36,31.37-69.92,51.3-102.53,32.28-52.35,94.2-62.56,142.34-29.78,45.26,30.86,67,82.71,100,124.51,54.26,67.18,138.78,95.85,204.83,148.78,98.74,79.22,139.12,99.64,255.68,30.72,258.61-164.88,95-202.45,219.25-307.11,69.36-46.48,31.9-168.9-56.48-144.4-43.48,9.59-81.73,33.71-121.41,52.83-67.84,36.63-148.13,28.35-216.38-3.29-79.07-32.72-131.32-96-161.79-175.2-11.6-26.26-39.72-29.94-65.11-25.34-33.83,6.55-67.79,9.89-102.17,5.06-60.28-4.31-119-36.22-179.6-18.23-74.16,20-137.75,81.94-148.72,159.67-4.29,33.93,3,72.88-23.65,99.41-90.2,88.42-367,88.61-493.08,97.92v106c46.28,25.15,323.26,27.84,274.38,123-37.3,51.14-108.58,28-155.8,5.14-29.73-11.64-88.62-41.23-118.58-36.21v407.93c4.32,5.3,10.08,8.68,16,11.72,39.8,20.13,79.78,40,120.53,58.18,29.54,16.78,138.5,49.94,138.19,83.89"/><path class="cls-1" d="M.38,1327.76V909.83c4.42-2.9,7.69.17,10.73,2.47,34.18,25.87,69.54,50.33,96.88,84.14,8.41,10.41,19.33,18.25,30.44,25.64,15.45,10.27,31.48,10.35,47.06,1,85.71-65.81-3.93-179.75-30-255.4C146,744,139.29,704.83,170.44,695.17c140.5-41.08,44.08-139,238.57-161.58,51.26-7.23,95.24-35.14,138.26-62,26.56-14.77,54-35.57,85.47-35.7,21,.48,18.62,23.16,11.54,37-15.8,33.85-40.72,64.5-46.5,102.2-11.85,64.7,69,56.3,111.33,52.73,108.67-7.1,204.21,53,303.28,87.76,51.41,15.06,120.65,32.25,165.52-5.9,36.55-42.21,14.17-107-19.09-144.65-23.16-26-53.12-41.81-83.88-56.48-56.14-26.1-153.59-39.26-123.61-125.45,14.66-43.87,21-88.64,18.27-134.7-1.56-26.4-7.57-52-15.66-77.12-4-12.1-10.51-38.76,11.39-31.22,110.17,50.3,189.85,147,323.34,89.64C1401.24,182.26,1489.37,84,1609.85,53.94c88.9-19.22,151.14,69.88,241.21,51.92,95.71-13.54,63.86-37.58,69.32,98.1-76.5,62.61-134.47,144.4-206.85,211.33-46,43.63-108.58,64.26-152.08,110.75-75.16,78.87-46,182.46,6.13,264.79,96.3,146.37,193.31,339.2-5.58,450-78.36,47.92-114.71,50.59-61.17-46.24,16.41-32.12,32.41-64.38,37.31-100.64,14.15-71.27-54.94-138.43-128.87-116.75-25.15,6.21-49.64,16.16-76.07,15.63-74.9-5-150.29-6.38-224.66-17.44-36.39-3.6-74-11.22-110.22-4.07-109.87,20.23-168.74-128.64-289.51-81.53-23.5,7.49-47,14.76-71.23,19.54-104.94,26.28-173.19,119.35-254.46,184.25-100.06,86.56-225,136.25-335.55,207.33C32,1309.34,6.7,1333.52.38,1327.76Z"/><path class="cls-2" d="M.38,2583.53v-114c4.8-2.89,7.35,1.29,10.32,3.49,47.94,35.41,96.41,70,148.43,99.32,68.22,37.87,143.54,60.16,213.09,95.39,27,12.67,54.29,24.94,84.37,29.71,21.89,3.48,41.62-.29,60.35-11.45,51.38-31.19,103.38-62.42,159.59-84.17,36.89-11.71,79.54-5.82,104.54,25.72a460.81,460.81,0,0,0,19.4,44.64c67.5,147,18.74,286.64,235.27,294.67,76.08,5.51,156.74,12.49,221.88,56.4,4.64,3.28,10.71,6.26,9.3,13.88-3.46,2.26-6.52.23-9.32-1.27-77.93-37.15-166.8-.88-242.58,25.4-84.25,27.53-104.3,113.92-124.58,190.47-8.14,29.23-.8,53.45,20,75,40.7,42.3,83.67,81.79,130.26,117.81,85.81,66.52,190.49,96.75,288.14,140.63,31,13.77,63.39,24.45,93.94,39.4,76.18,32.59,125,128.2,66.19,199-51,59.73-134,71.37-196.8,115.07-60.29,39.26-130.48,40.62-199.81,33.32-55.2.6-109.73,17.65-165.06,9.38-58.28-6.3-110.43-37.66-169.22-42.05a427.33,427.33,0,0,1-105.44-26.21c-20-7.72-40.6-13.1-62.41-11.17-15.63,1.38-30.93,4.5-46.14,8.2-63.07,16.4-128.41,18.75-193.22,14.17C340.86,3906.89,374,3831,382.4,3810c35.28-84.29,91.75-157.4,166.65-209.94,18.21-15.62,28-35.91,33.07-59,10.45-47.36,31.85-89.26,62.48-126.9,10.39-14.71,52.13-57.54,51.17-72.39-2-3.31-6.21-2.12-9.27-1.53-58.77,14.84-111.43,47.35-167.5,69.74-6.93,4.27-14.53,3.48-15.1-6-34.5-184.29-89-84.41,47.08-186.07,17.88-13.79,34.63-28.77,51.53-43.64,7.54-2.3,8.57-11.3,12.94-16.86a3,3,0,0,0,.17-3c-13.22-11-32.09-9.8-48.26-10.15-2.05-.32-3.55-2-5.6-2.28-41.8,12.39-76.64,41.63-108.36,70.76-4.66,4.45-8.41,10.39-15.5,11.74-27.13-32-53.46-65.29-75.27-101.4-10.74-18.46-18.44-38.36-27-57.83-9.67-26.23-25-51.68-29.15-79.38.78-4.45,3.37-7.88,6.32-11.11,20.58-22.51,36.84-48.06,51.14-74.78,8.87-16.59,19.8-31.49,31.62-45.92,16.76-20.47,15.41-29.24-6.94-44-116.84-65.89-267.19-81.74-353.54-194.49C24.76,2603.89,15.82,2588.62.38,2583.53Z"/><path class="cls-3" d="M350.13,3923.2c47.4.27,94.6,2.25,141.66-5.53,40-5.09,78.61-21.11,119.35-18.28,48.92,9.05,94.22,34,144.69,36.74,20.74,2.5,41.1,6.74,61.33,11.51,25.37,7.22,49.44,19.45,75.74,23.71,50.67,15.79,103.19,8.21,154.62.91C1103,3962,1160,3983.32,1214.82,3967c35.54-7.19,66.52-25.41,97.66-43.05,70.53-44.64,181.39-58.34,198.2-155.5,15.94-93-80.43-143.95-154.57-169.64-69.72-29.24-140.33-56.94-209.55-87.48-47.27-19.74-88.44-49.21-128.36-80.86-23-19-47.09-36.89-67.4-58.83-93-87.45-71.36-88.45-38.72-202.3,21.42-86.86,104.41-116.15,181.84-137.23,35.46-9.85,72.84-16.56,109.78-14.47,22.54,1.14,43.2,9.3,63.13,19.66,18.44,7.35,8.55,42.89,1.45,56.12-11.55,22.88-23.23,45.7-30.38,70.5-11.15,37.73-6.12,65.41,36.68,39.22,21.38-14.28,41-30.64,58-50,3.39-3.86,6.31-8.92,12.79-8.17,62.17,38.72,136.58,7.85,203.9,4.22,84.19-5.49,173.12,8.8,246,52.86,2.56,1.55,4.94,3.41,8,3.71,12.08,4.14,17.88,15.47,26.15,23.74,25,28.13,54.68,54.25,74,86.68a87.09,87.09,0,0,1-11.74,48.46c-11.82,19.47,20.91,11,28.64,20.76v60c-5.55,1.74-8.76-2.34-12.09-5.29-45.08-42.57-103.11-64-158.27-89.82-50.31-22.7-87.78-73.93-146.11-76-32.46.79-62.42,16.43-94.05,22.41-29.25,7.3-45.53-19.54-70.27,10.5-33.94,40.77-64.62,85.77-81.52,136.43-20.3,58.15,13,126.5,81.38,118.63,126.18-9.55,246.62-84.61,375-57,138,35.91,104.86,195.11,5.38,257.42-144.14,107-383.68,113.71-444.87,309-11.44,38.31-19.45,77.54-31,115.85-15.31,51-44.28,92.78-83.67,127.95-10.43,9.32-20.76,19-29,30.21-87.35,162.94,145.12,274.64,193.7,57.8,4.14-12.31,7.6-24.84,11.34-37.28,1-3.39,1.17-7.39,4.86-9.47,14.88,8.62,50.64-30.09,63.52-39.32,164-142.27,57.8,10.1,287.62-57.3,54.86,31.38,89.9,88.25,128,137v88a158.53,158.53,0,0,0-54.92,42.94c-2.36,2.85-5.27,5.09-9.41,4.49-4.76-1.35-6.3-5.59-8.4-9.34-26.79-45.73-47.18-98.32-90-131.94-89.6-56.21-133.57,83.47-160.16,145.09-31.63,81.81-122.1-86.51-236,1.5-35.22,25.2-65,57.54-102.23,79.77-74.88,43.57-87.15-106.41-225.49-139.08-3.27-1.75-4.25-5-5.17-8.19-50.08-189.81,28-141.45-132.09-324.15-69.71-89.34-287.33-69-239.77,6.09,76.29,79.52,126.62,137.15,14.87,215.15-2.91,2.11-5.69,4.75-9.74,4.52-97.89,9.35-196.5,28.93-294.95,14.68-59.5-12.86-116.49-35.18-175.32-50.82-33.24-10.77-74.17-21.26-110.4-33.08-28.83-9.41-54.69-20.06-71.34-29.55,1-8.18,10.89-6.6,16.1-7.41,110.09-13.61,186.53,140.66,337,35.67,62.45-49,98.47-84.76,56.23-164.5-15.11-28.34-25.29-60-50.7-81.47-28.23-27.87-28.61-87.42-22.73-124.55C346.26,3928,345.41,3924,350.13,3923.2Z"/><path class="cls-3" d="M259.36,2498c-7.5,9.22-2.86,17.37,8.53,21.77,73.79,20.38,202.77-5.53,253-66.44,65.72-84.81-15.41-202.45.87-299.38,9-55.66,50.29-48.9,90.23-26.24,34.8,18,70.23,34.58,107.65,46.51,65.33,21.15,136.5,30.22,192.46,73,2.27,24.56-11.58,46.09-14.7,69.77-3.76,33.31,46.36,31.55,69.17,33.63,44.85.62,86.07-15.48,125.5-34.45,95.07,29.58,153.05,119.51,215,191.55,23.19,28.74,60.22,73.22,101.09,51.27a126.48,126.48,0,0,0,20.63-15.08c6.43-5.77,15-8.34,21.4-14.36,15.06-14.93,5.45-38.1-.11-55.1-11.45-32.87-27.74-63.52-43.4-94.47-23.77-48.19-66.46-115.16-9.91-156.85,38.86-31.1,81.92-55.79,121.93-85.17,39.3-25,72-77.16,3.07-86.26,51.34-43.88,140.76-54.49,157-129.86,8.13-36.89,18.23-74.7,45-102.87,36.79-37.87-142-38.84-160.12-36.44-17.18.64-32.85,7.89-47.17,17.59-3.07,2.07-5.57,6.33-10.37,3.51,3.61-23.09,1.63-48.59,9.71-70.35,18.35.59,35.55-4.54,52.63-10.46,111.37-43.83,235.94-40.55,342.45,15.41,3.69,1.73,7.13,3.62,9.1,7.4v128c-46.23,22-140.72,85.36-92.15,143.08,18.2,24.25,46.77,35.91,68.25,56.45,14.74,10.7-15,11.56-21.47,13.09-40.68,8.6-83.37,15-120.49,34.5-6.71,2.08-6.59,8.41,1.39,7.85,49.75,3.77,99.86,1.22,149.41,8.41,5.22.79,10.68.93,15.06,4.57v216c-1.66,1.76-.81,4-1,6a83.52,83.52,0,0,1-4.53,24.42c-23,58.81-25.32,121.4-31.58,183.36-35.35,174.27-266.63,187.23-410,199.23-37.81-74.76-120.23-104.28-191.47-138.65-43.48-19.46-87.9-22.8-133.66-11.08-58.41,15-118.36,22.87-175.75,41.59-40-37.15-90.68-59.35-145.65-59.26-16.64.26-41.54.74-45.43,21.07a11.3,11.3,0,0,1-2.79,5.23c-12.44-22.2-39.93-27.69-63.51-30.42-19.33-1.37-37,3.58-53.49,11.3-38.67,18.06-76.7,37.55-113.36,59.48-27.6,17.86-55.72,36.86-90.57,30.39-60.28-9.7-110.34-46-166.89-66.57-40-16-80.57-31-118.66-51.38C111,2550.41,55.66,2508.11,0,2469.55v-152c47.62,25.33,97.33,50.82,148,71.7,36.31,16.58,73.36,32.39,108.1,52.19,6.48,3.86,13.61,8.7,17.6,13.91a14.64,14.64,0,0,1,1.92,12.34,156.45,156.45,0,0,1-6.76,15.81A157.39,157.39,0,0,1,259.36,2498Z"/><path class="cls-2" d="M283.57,1163.38c68.52-41.88,126.75-97.19,186.27-150.56C524.41,964,582.68,911.89,658.12,902.17c43-9.42,86.33-34.6,130.88-19.6,53.69,16.12,94.27,56.89,144.34,80.43,36.82,17.88,76.53-1.36,115.16,4.23,31,1.88,62,5.39,92.82,9.93,40.81,6.19,82,5.58,123.06,8.83,3.64,5.11.32,9.61-1.46,14.06-20.05,57.58-76.64,78.56-122.89,110.11-22.61,17.1-54,61.58-22.8,84.39,40.68,28.24,91.91,16,138.17,18.59,88,6.09,133.68,97.45,147.39,174.82,12.3,53.65,27.54,118.84,92,126.59,6,1.1,13.5-.07,17.53,6.78-59.5,13.47-107.59,54.26-166.15,70.39-97,23.35-203.44-19.47-271.17-89.51-30.21-29.7-46.53-68.7-63.82-106.64-15.41-36.18-53-27.06-83.57-21.93-27,3.79-54.22,5.71-81.3,1.71-4.57-1.46-6.34-5.55-8.74-9.14-22.26-33.33-52.18-55.69-92.16-62.92-30.34-5-71.7,9.13-75.36,43.72-.33,3.73-1.18,7.23-3.69,10.14-65.61,17.53-123.74,69.61-142.24,135.66C510.39,1545.6,532,1596.69,476.44,1632c-86,53.52-192.29,58.85-290.55,69.51-61.52,4.19-124.26,16.15-185.51,10.23v-236c1.78-1.61,3.8-1.27,5.58-.28,46.57,21.46,102.28,21,151.68,10.72,38-9.89,15.25-45.26,46.32-89.34,25.49-47.41,73.25-68.58,120.28-89.06C390.31,1275.43,283.64,1210.26,283.57,1163.38Z"/><path class="cls-1" d="M.38,2583.53c5.52-3.6,9.38-.44,12.84,3.38,12.9,14.3,25.91,28.5,38.49,43.07C130.84,2719.55,253.47,2743,358,2790.46c96.7,44.22,32.07,55.51,3.23,119.4-14.14,27.58-33.26,51.66-53,75.41-6.84,17.36-21.51,28.67-33.4,41.9-26,28.95-50.8,58.94-76.19,88.4-12.88,14.94-28.35,22.77-47.92,22.41-84-4.83-122.69,37.39-110.64,120.86,7.68,57.57-11.46,118.58,23.22,170.45,50.53,92.36,175.07,204.52,278.34,120.24,51.86-46.42,91.34-106.38,157.19-135.15,55.78-19.9,108-50.18,163.85-70.71,11.93-3,23.95-10.21,36.48-5.39,3.82,15.82-35.62,54.33-45.82,69-36.9,42.41-61,93.33-72.56,148.25-11.57,45.05-57.38,63.44-87.77,93.94-72.87,73.69-124.84,171.63-142.93,273.68-10,36.23-7.14,111.8,26.23,135.88a41.79,41.79,0,0,1,13.07,14.6c16.13,28.94,31.56,58.26,43.61,89.17,13.11,29.64,9,65.86-13.52,89.85-48.85,56.17-117.4,101.91-194.82,83.18-73.17-11.32-132.53-89.83-210.23-68.53"/><path class="cls-1" d="M662.49,4371.39c78.75-55.26,99.29-105.94,26.75-180.29-18.39-20.89-63-52.06-33.41-80.76,21.15-17.48,48.81-22.45,75.34-25.89,77.25-8.35,150,29,195.14,91.31,34.47,48,85.16,94,84.08,157.39-2.52,98.55,38.56,189.16,84.73,273.9,35.22,61.18,75.1,171.45-8.83,209.38-38.08,15.29-80.07-3.51-110.16-27.38-46.07-34-79.74-83.2-132.09-108.74-36.25-18.68-68.08,11.43-91.9,35.78-42.5,41-102,53.41-151,84.12-90.73,55.28-140.22,153.32-211.85,228.53-57,64-130,116.13-214.27,136.36-42.2,10.53-86.8,12.71-126.79,30.8-13,6.61-24.16,15.11-33.35,26.47-3.49,4.31-6.82,10.74-14.51,6.67v-541.9c6-2.94,9.21,2.1,13,4.73,19.14,13.22,36.29,29.22,57,40.26,42.21,21.89,76.86,52.59,120.36,13.79,75.48-64.33,55.54-142.69,159.35-193.3,77.74-45.45,175.17-53.44,238-123.13C610.14,4407.5,635.82,4387.11,662.49,4371.39Z"/><path class="cls-4" d="M176,5162.86c78.85-21.24,148.71-67.71,203.93-127.26,3.88-4.48,7.76-9.72,14.45-9.18,138.25,4,307-73.82,417,45.05,16.76,18.45,24.76,42.53,32.14,65.9,28.09,88.85,129.67-3.34,163.91-41.78,41.92-46.78,90.29-84.07,148.66-108.67,27.75-11.69,49.73-31.17,61.58-60.68,11-27.45,25.46-34.37,55.33-28.68,31.4,6,62,15.51,93.41,21.62,23.65,4.6,47.29,7.53,71.36,7.3,5.46-.71,22.77-.79,14.62,7.26-49.5,55.9-98.45,113.64-138.42,176.66-28.69,50.07,32.32,107.43,81.31,82.24,76.11-24.74,191.29-184.46,270.06-103.56,19.91,25,32.83,54.91,54.36,78.87,2.32,2.89,4.82,5.65,3.53,9.82-12,24.51-22.8,49.62-35.13,74-38.72,86.64-135.93,101.18-220,113.62-95.6,17.82-168.39,32.22-256.07-22.44-43.24-25.37-95.12-39.5-144.42-23.67-88.85,20.94-170.06,64.08-239.66,123.05-7.61,6-15.23,11.85-23.64,16.65h-226c-6.88-12.53-5.74-26.6-6.37-39.95-1.5-89.16-58.61-169.79-139.47-206.19-15.43-6.32-32.14-9.47-48.92-6.14C311.77,5221.52,239.38,5194.55,176,5162.86Z"/><path class="cls-1" d="M1442.2,4356.85c-14.92,46-24.7,95.1-55.18,134-79.24,90.87-201-3.48-175.62-108.32,12.69-61.7,93.86-88.3,123.09-175.94,21.23-54.76,26.65-114.24,49.62-168.43C1438,3921.53,1568.42,3882,1677.7,3835c86.2-38.76,189.53-81.24,220.62-179.15,14.41-42.42,5.54-91.35-30.15-120.22-119.29-89.92-298.91,24.28-431.08,29.52-40.17,4-79.49-22.74-85-64-11-74.14,41.66-139.21,84.41-194.31,28.28-34.24,41.67-5.06,75.32-13.23,26.52-6,51.8-16.95,78.84-20.86,37.29-5.26,72.38,14.66,100.64,36.78,51,41.83,115.52,58.49,171.06,92.5,14.84,9.49,29.26,19.52,42.28,31.49,4.84,4.45,9.19,9.7,15.78,11.88v781.86c-42.75,8.12-82.87,30.36-125.9,34.59-38.06,10.84-77,22.14-117.06,19.32-28.1-1.61-52.33-15.94-77.11-27.73-13.14-3.09-23.79-11.57-36-16.59C1480,4196.94,1467.37,4304,1442.2,4356.85Z"/><path class="cls-1" d="M778.47,2629.46c-1.13-45.59,85.16-28.08,111.95-19.05,31,10,60.07,26.11,82.11,50.4,9.51,3.37,14.16,11.88,19.2,19.4,48.51,73.41,64.22,148.14,167.28,156.67,86.3,10.31,166-25.7,245.46-53.31,22.19-5.84,45-15.56,68-14.43,101.17-13.51,208.85-12.71,299.89-64.73,58.41-28.1,106.25-81.3,110-148.29,3.07-41.35,5.35-82.61,15.86-123,6.22-24,15.6-47.15,20.46-71.49.53-1,1.11-1,1.73-.08v969.82c-10.77.07-14.36-8.1-18.25-15.92-13-16.25-26.25-32.28-40.33-47.6-19.27-20-37-41.77-57.35-60.55-6.51-1.88-10-7.48-14.5-11.83-11.19-10.95-22.71-21.66-31.58-34.67-24.81-42.27,83.58-28.71,47-110.13-16.74-48.52-52.32-87.53-107-83.11-120.25,4.16-240.46,51.58-320.07,143.32-11,11.89-19.9,25.87-33.77,35-19.56,17.83-85.88,92-111.39,64.11-8.71-20.32,1.5-43.5,7.53-63.33,8.86-27.45,28-51.11,33.47-79.56,6.12-45-51.91-60.68-84.89-73.39-64.17-21.79-132.4-19.08-198.7-28.57-125.26-16.74-140.33-100.52-162.66-206.91-8.49-38.75-24.31-75.14-42.43-110.27a34.45,34.45,0,0,1-3.54-11.23C781.65,2634.14,782.4,2630.54,778.47,2629.46Z"/><path class="cls-2" d="M462.35,521.39C400,547.14,310.61,534,274.32,602.94c-13.57,26.18-25.64,55.16-51.11,72-16.81,11.68-37.3,16.27-56.09,23.8-11.66,4-20,19.51-17.63,31.89.91,8.61-4,10.25-10.8,10.1a325.26,325.26,0,0,0-54.53,3.49c-22.66,3.34-45.07,7.91-67.4,13C11.43,758.42,6,761.1.38,757.86V417.92c5.44-5.4,12.1-2.75,18.06-2.08,26.18,3.08,55.16,11.8,78.64-4.52,34.28-22.38,72.21-32.72,112.31-38.56C383.61,362.4,493.44,229,620.7,128.13c4-3,8.21-5.72,13.33-6.57,68.33-2.41,136.43,6,204.76,3.39,85.59-2.75,170,10.07,254.85,18.66,72.36,3.37,135.41,34,193.52,75.75,3.83,2.45,8.28,4.6,9.06,9.95-50.5,23.15-108.39,27.4-160.52,6.62-29-11-55.72-26.12-82-42.16-13-5.25-105.31-78-101.77-42.47,1.15,11.21,5,21.76,8.19,32.35,13.57,43.53,15.75,89.64,9.78,134.64-4.43,52.38-48,105,6.44,145.78-1.62,5.91-6.68,4.36-10.61,4.58-50.36,2.56-99.64-18.52-149.58-5.3-38.49,4.53-80.8,30.48-118.63,16.46a168.53,168.53,0,0,1-51.18-33.92c-1.23-4.15-3.47-6.82-8.35-6.65-13.12-2.73-26.17-6.87-39.54-9.16C535.71,420.78,485.85,468.05,462.35,521.39Z"/><path class="cls-1" d="M1722.57,5177c-14.17-22-32.33-42.47-44.81-66.19-7.87-13.22-16.27-26.27-30.67-34.34-74.37-35.84-166.18,74.62-228,107.63-24.59,15.18-60,25.83-85.33,6.07-24.54-17.34-38.69-50.69-23.4-78.51,9.52-19.88,23.44-36.85,36.77-54.13,34.77-43.41,66.49-89.72,106.67-128.42.09-4,3.54-5.42,5.82-7.66,11.39-11.21,22.73-22.46,33.14-34.61,4.34-5.05,9.51-10.06,10.59-16.71,7.24-49.75,108.92-75.49,147.83-107.2,24.89-16.19,48.51-34,69.73-54.8,60.8-51.84,86.91-132.46,145.28-185.25,14.55-13.6,33.68-36.29,54.21-37.65V5459h-62c-7.89-10.82-9.31-24.11-12.71-36.38A779.81,779.81,0,0,0,1722.57,5177Z"/><path class="cls-1" d="M632.41,124C507.78,213.32,405.26,352.23,242.57,370.32c-47,8.24-96.86,11.38-137.23,39.49-31.48,24.32-69.51,8.23-105,8.11V0h758c21.38,7.11,105.93,59.12,59.74,78.77C802.53,84,786.38,85.47,770,85.2,718.16,82,676.66,99.12,632.41,124Z"/><path class="cls-2" d="M176,5162.86c9.72,1.3,17.75,7.05,26.54,10.67,29.51,10.9,58.9,22.16,89.45,29.86,19.83,3.87,39.43,6.62,59.93,4.52,14.79-1.52,29.39-5.82,44.34-4.72,61.91,3,112.39,53.84,145.89,102.31,30.58,45.81,30.38,100.87,36.21,153.5-166.8-.12-331.48-1.27-498,0-28.34-19.44-52-46.13-69.52-75.57-2.44-4.51-6.19-7.74-10.48-10.41v-90a6.28,6.28,0,0,1,4.38-2.1c18.4.73,28.83-10.88,36.16-25.15,10.33-20.1,24.16-37.21,40.68-52.22,9.09-8.27,15.22-19.12,24.8-26.84C129.19,5170.33,152.9,5167.92,176,5162.86Z"/><path class="cls-5" d="M1722.57,5177C1791,5256.79,1831,5358.47,1858.38,5459h-1054c65.51-59,144-108.94,230.17-132.87,32.8-10.61,67.81-19.62,102.62-14.62,29.12,4.29,54.45,18,80,31.26,84,51.08,151.88,38.45,243.08,20.95,120.76-18.55,193.5-25.46,243.87-151C1710,5203.28,1714.29,5182.49,1722.57,5177Z"/><path class="cls-4" d="M632.41,124c36-27.54,80.32-43.15,125.81-41.07,119.46,2,66.58-44.42.16-82.91h768c30.1,9.19,54.26,28.09,77.92,47.76,10.37,8.77,1,11.26-7.92,11.63-110.75,35.9-195.52,121.83-300.16,169.92-110.4-79.79-145.74-76.46-275.16-90.68C892.24,122.33,761.77,130.05,632.41,124Z"/><path class="cls-2" d="M1560.48,524.25c42.27-47.18,106.06-66.61,151.43-110.52,116.65,5.37,170.81-59.85,166.26-174.22,11-10.4,28.34-31.51,42.21-35.55V637.88c-2.48,17.86-9.84,21.09-21,33.2-14.3,17.13-29,33.83-40,53.47-6.3,9.71-6.68,24.48-15.25,32-10.82-1.4-18.89-7.69-26.28-15-12.62-18.82,13.54-30.64-22.19-69.12-47-53.08-112.36-86-180.82-101.29C1596,567.08,1550.92,549.49,1560.48,524.25Z"/><path class="cls-1" d="M1844,755.77c11.14-37.69,36.23-68,62.26-96.47,4.63-5.49,10.37-10,12.42-17.33.53-1,1.11-1,1.73-.09V1633.7c-73.7-48.84-128.34-118.66-143.1-207.49-39.12-159.68,142.77-254.87,94.69-427.12C1861.31,930.25,1821.45,821,1844,755.77Z"/><path class="cls-4" d="M.38,4327.21c55.56,26.62,106.43,65.28,145.2,113.51,43.33,59.2,77,125.86,128.87,178.46-30.74,60.63-79.71,186.79-167.23,135.48-27.44-15.5-56.07-28.44-79.92-49.58-6.59-3.78-20.73-18.56-26.92-17.94Z"/><path class="cls-5" d="M1780,1427.68c11.58,56.4,35.93,111.35,77.78,151.78a364,364,0,0,0,54.42,44c4.15,2.77,4.11,8,8.22,10.23v112c-101.49-51.54-196-65.85-306.24-34.14-14.1,2-94.66,36.07-97.94,21.8,6.62-47.56,57-66,79-104.07,18.15-38.15,2.75-90.26-36.91-107.46.77-5.9,5.81-5.9,9.73-6.26,53.56-7.29,182.17-32,205.1-84.33C1774,1428.92,1774.42,1422.39,1780,1427.68Z"/><path class="cls-4" d="M283.57,1163.38c5,4.46,5.2,11.31,7.34,16.87,6,15.58,17.36,27.36,26,41,12.42,21.85,45.84,48.88,25.85,75.22-21.17,22.65-53.71,26.21-78.8,42.72-32.94,19.69-57.29,52-71.84,87.23-12.48,34.12,2.57,56.7-45.28,65.17-16,3-32.18,2.52-48.39,4.28-13.58-.51-27-2.66-40.46-3.62-20.49-1-39.6-7.34-57.6-16.54v-148C92.22,1270.12,187.79,1215.54,283.57,1163.38Z"/><path class="cls-4" d="M.38,757.86c44.64-9.69,89.71-20.79,135.72-20,12.74.17,12.32.83,12.27-11.52,0-2.89-.81-6,1.74-8.46-2.45,92.37,119.49,197.59,55.32,291.31-50.43,60.56-95.07-10.91-131.84-45.92-22.49-17.59-45.26-34.8-67.91-52.18-1.6-1.23-3.11-2.65-5.3-1.22Z"/><path class="cls-5" d="M1608.41,56c-3.36-6.53-9.89-9.7-15.22-14.07-7.4-6.07-15.06-11.82-23-17.33C1556.61,14.43,1540.17,9.46,1526.38,0h394V100c-3.58-3.68-7.56-4.47-12.62-2.93C1747.85,147.14,1733.61,40.18,1608.41,56Z"/><path class="cls-5" d="M176.38,1969.46c-55.88-13.63-105.23-48.59-162.72-57.54-4.33-.9-8.35-4.78-13.28-2.27v-92C55.51,1837.49,313.23,1844.25,280,1936c-4,17.35-24.61-1-32.17-3.37a149.72,149.72,0,0,0-24.65-7.9c-23.08-5.34-39.28,6.5-43.23,30.56C179.19,1960.07,180,1965.34,176.38,1969.46Z"/><path class="cls-1" d="M1900.36,2079.62c-32.58-32.61-102.48-56.37-85.59-114,18.56-42.39,55.22-67.76,94.59-89.15,2.74-1.94,6.65-4.77,11-2.78v224c-1.3,3.33-3.23,6.75-6.29,1.91C1909.77,2092.7,1903.7,2087.09,1900.36,2079.62Z"/><path class="cls-5" d="M1794.48,4261.82c37.42-10.66,74.71-21.67,111.58-34.09,4.61-1.45,9.45-3.45,14.32-.5v170c-24-23.11-40.54-54-63.92-78.18C1838.78,4296.94,1816.62,4279.18,1794.48,4261.82Z"/><path class="cls-5" d="M1900.36,2079.62c6.8,4.82,11.11,11.83,15.16,18.73,3.34,5.68,3.26-.89,4.86-.73v44c-56.81-9.07-114.72-5.56-171.69-11-6.06-1.72-7.76-6.4-1.2-9a138.6,138.6,0,0,1,37.82-17.23C1823.07,2093.73,1861.37,2084.52,1900.36,2079.62Z"/><path class="cls-4" d="M106.4,5176.72c-13.3,24-37.83,38.6-52.6,61.68C41.51,5259.66,30.09,5287.82.38,5283v-54c5.36.71,8.56-2.71,11.4-6.32C34.48,5193,70.67,5181.49,106.4,5176.72Z"/><path class="cls-1" d="M.38,5373c5.58-2.52,8.47,2.19,10.25,5.28,17.21,32.29,44.73,55.68,69.75,80.7H.38Z"/><path class="cls-5" d="M1902.13,3315.47c6.09,5.34,9.85,14,18.25,15.92v54c-64.06-7.62-19.09-18.86-19.89-57.49C1900.46,3323.75,1898.93,3319.24,1902.13,3315.47Z"/><path class="cls-6" d="M260.38,5459c5.53-10.82,50.68-7.63,58,0Z"/><path class="cls-7" d="M1920.38,641.88c-.58,0-1.16,0-1.73.09-.38-1.77-.51-3.43,1.73-4.09Z"/><path class="cls-8" d="M1920.38,2361.57l-1.73.08c-.38-1.76-.49-3.42,1.73-4.08Z"/><path class="cls-4" d="M1780,1427.68c-1.18-.34-2.83-1.36-3.32.38-15.94,44.83-69.92,53-108.88,68.73-31.52,10.67-64.24,18.67-97.53,21-4.35,0-8.49,1.08-11.91,4a87.42,87.42,0,0,0-46-.48c-76.9-12.95-90.72-45.06-108.08-116.19-10.63-39.69-17.06-81.48-39.68-116.79-20.49-30.53-49.44-57-84.41-69.09-32.77-8.18-68.33-.72-102-3.69-75.89-4-104.07-45.69-44.27-104.27,20.86-15.77,44.35-27.66,66.76-41,29.38-20.13,56.63-48.42,63.69-84.35,41.57,2.41,83,9.3,123.07-5.86,20.33-6.54,41-11,62.79-8.83,47.36,5.79,84.87,40.74,90.32,88.88,7.22,56.93-24.58,107.28-48,156.48-21.7,42.63-26.66,71.88,30.87,42.18,131.22-59.52,186.51-164.25,131.44-302.27-50.66-134.84-225.69-292.65-94.38-432.32.85,46.55,90.42,47.12,123.32,65.9,44.14,18.71,85.51,47.21,116.47,84,43.43,46.84-13.66,55.26,43.7,81.61-15.21,82.63,18.34,163.37,30.16,244.05-70.56,95.6-97.46,216.62-96,333.88C1773.16,1365.14,1773.13,1396.5,1780,1427.68Z"/><path class="cls-5" d="M1506.49,1803.68c18.49-11.55,37.92-23.69,60.64-24,51.72,1.1,116-4.23,162.17,21.92,6.48,4.66,2.89,13.5-2,18-10.17,7.22-13.66,19.42-21.49,28.46-4.38,5-6.36,12.32-8.85,18.81-22.39,71.18-14.31,101.65-90.3,138.53-29.12,13.71-56.12,31.88-84.56,46.39-68.93,1.63-130.84,37.27-191.77,65.86-32.58-7.17-64.7-12.1-97.39-1.35-24.7,6.91-44.76,20.22-57,43.53-1.28,2.44-2.85,4.48-5.52,5.48-17.63-3.55-33.72-11.14-49.59-19.15-46.71-24.64-99.32-35.21-145.07-61.86-28.92-18.46-53.08-43.71-87.47-52.34-3.15-6.92.73-13,2.66-19.13q8.67-27.43,36-37.23c36.83-13.17,75-20.27,113.49-26.42,58.09-8,38.29-26.58,83.61,10.1,94.19,83.51,165.32,50.43,258.35-13.32C1431.07,1906.65,1491,1868.11,1506.49,1803.68Z"/><path class="cls-5" d="M679.8,1885.93c-14.62-7.08-26.85-17.82-40.39-26.55-14.92-12.73-51.3-17.13-50-40.66,3.11-35.52,24.52-66.45,40.16-97.59,19.87-42.48,56.66-80.68,107.14-75.63,55.64,3.24,92,50.58,119.6,94,9.14,14.17,18.73,28,28.12,42,3.08,6.47,2.06,12.9-.19,19.32-34.44,80.28-83.35,67.14-155.34,70.86a115.41,115.41,0,0,0-39.68,12.42C686.3,1885.65,683.31,1887.15,679.8,1885.93Z"/><path class="cls-4" d="M679.8,1885.93c48.69-30.55,90.54-10.5,140.25-22.49,33.4-12.61,63-45.12,64.42-81.94,54.23,71.31,142.63,100.46,209.88,156.15-38.24,15.93-80.56,16.08-120.26,27.39-43,10.35-78.59,16.31-85.82,66.88-49.62-9-96.69-32.05-130.95-69.78C732.65,1935.41,710.5,1906.2,679.8,1885.93Z"/><path class="cls-5" d="M1092.47,2316.22c.39,1.17,1.33,2.5-.49,3.27-11,4.59-22.1,9-33,13.75-45.47,20.83-99.66,27.56-147.56,11.31-31.38-11-8.74-50.15-3.85-73.09,2-8,1.85-16.44,5-24.19C974,2298.08,1019.62,2299,1092.47,2316.22Z"/><path class="cls-4" d="M666.37,1357.15c-1.44-37.37,34.14-57.68,67.88-57.35,48.14,1.64,89,35.06,112.07,75.55C786.11,1371.45,726.75,1340.17,666.37,1357.15Z"/><path class="cls-4" d="M1170.4,2165.27c22.89-57.73,108.45-70.3,160-47.66C1281,2141.31,1227.61,2179.26,1170.4,2165.27Z"/><path class="cls-4" d="M176.38,1969.46c-1.36-14.34,4.9-26.74,11-38.8,22.22-24,64.33,3.34,89.43,11.2-1.09,5.7-5.82,9-9.63,12.14C242.75,1975.38,206.85,1978.42,176.38,1969.46Z"/><path class="cls-3" d="M646.34,445.89c23.18,11.85,41.81,32.78,69.13,35.42,37.75-.6,73.72-18.55,111.28-22.86,49.7-11.35,100,15.44,149.59,5.62,57.3,30.1,123.93,41.77,172.73,87.33,35.46,31.5,56.92,80.74,47.64,128.27-18.92,74.25-117.52,57.74-173.45,41.59-128-44-217.24-106.91-360.47-88.52-76.91,3.63-81.86-50.6-50.09-108C623.34,499.81,649.8,474,646.34,445.89Z"/><path class="cls-4" d="M1878.17,239.51c19.13,101.32-60.52,195.32-166.26,174.22C1770.62,358.84,1819,293.86,1878.17,239.51Z"/><path class="cls-4" d="M462.35,521.39c19.34-68.56,103.79-118.72,170-83.7C568.64,447.22,521.58,499.12,462.35,521.39Z"/><path class="cls-3" d="M510.26,3411.34a345.62,345.62,0,0,0-114,85.52c-101.78-77.16-187.79-69.34-296-11.33-37.88-41.44-68.44-98.47-61.25-156.22,7.24-47.82-13.41-96.14,3.53-142.66,15-42.22,60.23-53.23,100.6-51.29,20.5,1.14,41.36-4.63,53.77-21.58,36.05-43.78,73.8-86,111.34-128.51,1.24,12.45,7.05,23.42,11.54,34.76,18.44,47.48,36.93,95,67.79,136,16.35,22.88,35.7,43.39,50.66,67.3,1.52,4-1.4,6.54-3.65,8.46-8,6.84-12.84,15.82-18.14,24.6-15.32,24.95,21.56,23.89,36.57,19.32,3.73-.62,7.52-3.24,11.35-.23a617.13,617.13,0,0,1,26.89,66c7,20.26,12.52,41,15,62.4C506.69,3407.12,507.14,3409.83,510.26,3411.34Z"/><path class="cls-1" d="M552.06,3141.68c-43.22,18.85-80.71,48.29-113.79,81.7-7.48,10.24-7.8,7.8-16.26,20.9-.41.64-7.22,10-8.76,11.47-13,12.72,6.86,28.25,21.38,25.42a147.17,147.17,0,0,0,29.77-5.64c42.15-19.7,79.69-47.68,115.57-77.14,0,0,57.6-41.45,36.16-56.71s-63.32,0-63.32,0"/><path class="cls-2" d="M1722.48,4709.32c-41.58,42.13-94.07,71.3-146.16,98.45-24.45,14.86-61.55,25.45-68.58,56.66-7.1,25.7-35.31,46.39-54,64.63-39,2.17-77.34-4.09-115.19-13-31.92-5.84-63.27-21.62-96.25-15.36-11.93,2.8-17.88,14.9-21.94,25-3.9,14.09-13.92,24.25-21.26,36.11-8.36,7.86-19.54,12.42-27.74,20.84-4,3.83-9.77,5.81-14.83,7.73-29.22,11.74-56.28,27.7-82.54,44.86-42.54,35.35-75.81,81-120.83,113.56-27.22,19.73-76.87,47.1-102.35,11.58-11.91-19.36-14.15-43.54-25.15-63.35-19.56-39.65-61.29-62.87-101.63-77.14-72.58-23.58-149.4-7.65-223.07,1.53-34.1,4.95-68.5,8.57-103,7.58-3.22-.15-6.73,1.06-9.51-1.67,53-57.48,94.2-125.45,149.9-180.29,5-2.79,8.29,1,11.48,3.46,94.34,68.6,232.52-21.76,200.42-135.58,23-23.05,54.88-55.62,90-39,84.77,34.91,134.87,160.27,239,140.48,39.94-10.72,59.92-56.18,54.29-94.82-11.65-88.89-76.47-158.81-99.44-244.37,4.84-.77,9.3.88,13.53,2.69,30.43,11.52,59.34,26.72,83.64,48.76,20.94,18.59,37.41,40.86,54.68,62.57,15.14,22.92,43.36,42.48,70.31,25.38,49.5-27.65,84.25-76.59,136.24-99.94,52.66-21.63,108.35,8,154.19,33.4,14.46,7.47,28.95,15.6,41.06-2,30.25-51.18,38.73-116.51,88.21-155.26,91.66-69.27,140.28,82,180.88,138.48-15.28,20.31-30.79,40.39-44.74,61.71-7.34,2.62-10.92-3.65-15-7.16-15.57-13.37-33.17-22-53.41-25.26-39.5-9.07-115.35,27.41-74.7,72.46C1681,4648,1728.93,4691.12,1722.48,4709.32Z"/><path class="cls-5" d="M1344.53,3145.9c74.08-93.6,157.4-147.16,274.66-171.8,96.9-18.78,159.43-18.5,192.78,87.78,23.3,73.2-83.35,61.43-48.56,102.2,12.58,15.48,28.31,28,41,43.24-4.11,3.66-6.49-.6-9.32-2.17-47-30.84-102.77-43.88-157.85-51.18-50-7.19-101.53-1.57-151.21,6.85C1441.08,3166,1381.85,3177.79,1344.53,3145.9Z"/><path class="cls-5" d="M1442.2,4356.85c27.28-90,50.65-176.42,158.11-103.44a354.45,354.45,0,0,0-74.19,49C1517.41,4307.94,1442.46,4381.1,1442.2,4356.85Z"/><path class="cls-2" d="M1472.43,2769.14c-86.4,14.81-164,62.1-251.86,70.46-57,5.37-122.5-1.11-162.47-46.89-33-40.9-48.52-93.95-85.57-131.9,37.29-15.08,77-20.14,116-29.11,53.71-11.22,109.32-32,163.81-13.24s105.29,46.28,155,75.07c29.24,16.25,46.46,44.59,66.43,70.18C1476.42,2766.86,1473.49,2767.51,1472.43,2769.14Z"/><path class="cls-5" d="M100.29,3485.53c49.19-33.83,112.15-52.06,171.8-47.73,44.27,4,81.48,30.76,119.56,51.18,3.46,1.74,5,4.11,4.63,7.88-37.78,46.62-88.18,95.33-153.5,83.2C185.2,3569.87,135.15,3530.77,100.29,3485.53Z"/><path class="cls-5" d="M890.36,4486.07c-1.17,28,.55,73.73-10,104.39-27.54,57.68-97.42-2.53-132.6-22.37-29-18.83-64.21-13-96.57-19-35.44-5.56-71.79-52.73-39.66-82,10.61-10.35,23.65-17.31,36.82-23.44,59.84-26.73,119.12-58.3,183.71-71.78C894.25,4360.83,889.73,4441.05,890.36,4486.07Z"/><path class="cls-4" d="M750.31,4715c30.5,73.82-36.88,152.64-110.72,160.47-38,6.71-70.65-8.21-101.19-28.35C594.67,4781.65,686.6,4770,750.31,4715Z"/><path class="cls-4" d="M1722.48,4709.32c-6.76-30.73-40.48-54.47-59.1-78.56-34.82-45.68,37.54-79,76.06-73.41,21.85,2.53,41.49,10.87,58.07,25.81,4.36,3.93,8.69,8.13,14.57,9.92C1785.48,4634,1759.79,4677,1722.48,4709.32Z"/><path class="cls-5" d="M1778.12,1333.7c-12.37-92.6,29.58-266.26,96-333.88C1909.37,1135.07,1815.11,1216.76,1778.12,1333.7Z"/><path class="cls-5" d="M656,4368.93c-22.95,4.6-46.57,5.14-69.71,9.12-64.65,5.37-130.11,14.88-195,8.76-29.64-1.75-57.94-11.66-86.29-20.09-32.81-10.09-65.49-20.39-98.65-29.46-65.22-19.56-136.15-32.19-196.4-65-1.53,2.51-2.93,2.28-5.46,3a14.78,14.78,0,0,0-4.16,1.89v50c37.6,25.49,78.14,46.77,111,79.1,62,61.72,95,144.93,154.91,208.6,2.07,2.39,4,5.58,8.16,4.27,59.13-80.74,164.84-96,249.6-137.69,39.66-18.33,66-54.22,100.36-80.05,12.68-10,26.29-18.9,38.08-30C661.25,4368.13,659,4368.28,656,4368.93Z"/></g></g></svg>